<svg width="490" height="500" viewBox="0 0 490 500" fill="none" xmlns="http://www.w3.org/2000/svg">
<g clip-path="url(#clip0_24_241)">
<path opacity="0.15" d="M71.93 363.55C111.656 363.55 143.86 344.956 143.86 322.02C143.86 299.084 111.656 280.49 71.93 280.49C32.2042 280.49 0 299.084 0 322.02C0 344.956 32.2042 363.55 71.93 363.55Z" fill="#D6D8E5"/>
<path opacity="0.5" d="M71.1 340.74C93.2576 340.74 111.22 330.371 111.22 317.58C111.22 304.789 93.2576 294.42 71.1 294.42C48.9423 294.42 30.98 304.789 30.98 317.58C30.98 330.371 48.9423 340.74 71.1 340.74Z" fill="#EDEFF9"/>
<path d="M70.7198 315.97C77.0379 315.97 82.1598 313.011 82.1598 309.36C82.1598 305.709 77.0379 302.75 70.7198 302.75C64.4016 302.75 59.2798 305.709 59.2798 309.36C59.2798 313.011 64.4016 315.97 70.7198 315.97Z" fill="#EDEFF9"/>
<path d="M82.1001 221.73H60.1001V308.19H82.1001V221.73Z" fill="#EDEFF9"/>
<path d="M59.0498 220.75C59.0498 220.75 59.6498 238.53 72.2998 270.42C72.2998 270.42 84.0798 244.74 85.2998 220.21C86.5198 195.68 59.0498 220.75 59.0498 220.75Z" fill="#FFBC00"/>
<path d="M43.6001 153.81L14.3301 182.29L10.8501 219.48L46.2501 201.73L52.6901 156.37L43.6001 153.81Z" fill="#120442"/>
<path d="M101 153.81L130.26 182.29L133.75 219.48L98.2202 200.5L91.9102 156.37L101 153.81Z" fill="#120442"/>
<path d="M71.9299 225.24C79.9656 225.24 86.4799 221.479 86.4799 216.84C86.4799 212.201 79.9656 208.44 71.9299 208.44C63.8941 208.44 57.3799 212.201 57.3799 216.84C57.3799 221.479 63.8941 225.24 71.9299 225.24Z" fill="#424956"/>
<path d="M49.8701 208.44V200.88H93.9401V208.72L49.8701 208.44Z" fill="#494949"/>
<path d="M71.9301 221.17C84.1135 221.17 93.9901 215.466 93.9901 208.43C93.9901 201.394 84.1135 195.69 71.9301 195.69C59.7467 195.69 49.8701 201.394 49.8701 208.43C49.8701 215.466 59.7467 221.17 71.9301 221.17Z" fill="#2B303F"/>
<path d="M71.8599 212.5C86.7274 212.5 98.7799 205.543 98.7799 196.96C98.7799 188.378 86.7274 181.42 71.8599 181.42C56.9924 181.42 44.9399 188.378 44.9399 196.96C44.9399 205.543 56.9924 212.5 71.8599 212.5Z" fill="#EDEFF9"/>
<path d="M100.93 169.28C100.93 170.53 100.93 171.76 100.93 172.95C100.93 173.95 100.93 174.95 100.93 175.95C100.93 177.3 100.86 178.59 100.81 179.85C100.81 181.42 100.7 182.91 100.62 184.34C100.54 185.77 100.47 187.17 100.37 188.46C99.9601 194.11 99.9701 198.27 99.2701 199.9C95.4601 208.81 82.5701 203.9 76.2101 200.7C73.8601 199.52 72.3101 198.55 72.3101 198.55H71.7301C71.7301 198.55 69.8901 199.55 67.1701 200.63C60.5001 203.33 48.6101 208.12 45.3101 199.87C44.7201 198.39 44.1301 193.5 43.7701 188.38C43.6801 187.1 43.6001 185.73 43.5201 184.27C43.4401 182.81 43.4001 181.36 43.3401 179.79C43.3401 178.54 43.2701 177.25 43.2401 175.91C43.2401 174.91 43.2401 173.91 43.2401 172.91V169.24C43.0601 134.35 46.7601 78.5601 58.9801 54.7501C62.5101 47.8601 66.7501 43.6501 71.8201 43.4001H72.4001C77.4001 43.6601 81.6901 47.8501 85.2301 54.7101C97.2801 78.4301 101.15 134 100.93 169.28Z" fill="#EDEFF9"/>
<path d="M72.0001 136.38C77.6168 136.38 82.1701 131.827 82.1701 126.21C82.1701 120.593 77.6168 116.04 72.0001 116.04C66.3833 116.04 61.8301 120.593 61.8301 126.21C61.8301 131.827 66.3833 136.38 72.0001 136.38Z" fill="#2B303F"/>
<path d="M71.9998 137.87C69.6937 137.87 67.4394 137.186 65.5219 135.905C63.6044 134.624 62.1099 132.803 61.2274 130.672C60.3449 128.542 60.114 126.197 60.5639 123.935C61.0138 121.673 62.1243 119.596 63.755 117.965C65.3857 116.335 67.4633 115.224 69.7251 114.774C71.9869 114.324 74.3314 114.555 76.4619 115.438C78.5925 116.32 80.4136 117.815 81.6948 119.732C82.976 121.65 83.6599 123.904 83.6599 126.21C83.6572 129.302 82.4279 132.266 80.2418 134.452C78.0557 136.638 75.0915 137.867 71.9998 137.87ZM71.9998 117.53C70.2827 117.528 68.6035 118.035 67.1748 118.988C65.746 119.941 64.6319 121.296 63.9734 122.881C63.3149 124.467 63.1416 126.213 63.4754 127.897C63.8092 129.582 64.6351 131.129 65.8486 132.344C67.0621 133.559 68.6088 134.387 70.2928 134.723C71.9768 135.058 73.7226 134.887 75.3092 134.23C76.8959 133.574 78.2521 132.461 79.2063 131.033C80.1605 129.606 80.6698 127.927 80.6698 126.21C80.6672 123.911 79.7532 121.706 78.1282 120.079C76.5031 118.452 74.2994 117.535 71.9998 117.53Z" fill="#424956"/>
<path d="M72.0001 106.48C77.6168 106.48 82.1701 101.927 82.1701 96.3101C82.1701 90.6934 77.6168 86.1401 72.0001 86.1401C66.3833 86.1401 61.8301 90.6934 61.8301 96.3101C61.8301 101.927 66.3833 106.48 72.0001 106.48Z" fill="#2B303F"/>
<path d="M71.9998 108C69.6921 108.002 67.4357 107.32 65.5157 106.04C63.5957 104.759 62.0983 102.939 61.2129 100.808C60.3275 98.6765 60.0939 96.3308 60.5414 94.0669C60.9889 91.8031 62.0976 89.7227 63.7273 88.0888C65.357 86.455 67.4345 85.3409 69.6972 84.8876C71.9599 84.4342 74.3062 84.6619 76.4396 85.5418C78.5729 86.4217 80.3975 87.9144 81.6827 89.8311C82.9678 91.7478 83.6559 94.0025 83.6598 96.3102C83.6625 99.4062 82.4358 102.377 80.2494 104.569C78.063 106.761 75.0958 107.995 71.9998 108ZM71.9998 87.6602C70.2822 87.6582 68.6027 88.1658 67.1737 89.1188C65.7448 90.0718 64.6307 91.4274 63.9725 93.0138C63.3142 94.6003 63.1415 96.3464 63.4761 98.0311C63.8107 99.7158 64.6376 101.263 65.8521 102.478C67.0667 103.692 68.6142 104.519 70.2989 104.854C71.9836 105.188 73.7297 105.016 75.3161 104.358C76.9026 103.699 78.2581 102.585 79.2111 101.156C80.1642 99.7273 80.6718 98.0478 80.6698 96.3302C80.6711 95.1903 80.4479 94.0613 80.0129 93.0077C79.5779 91.9541 78.9397 90.9965 78.1346 90.1895C77.3295 89.3826 76.3733 88.7421 75.3207 88.3047C74.2681 87.8673 73.1397 87.6415 71.9998 87.6402V87.6602Z" fill="#424956"/>
<path d="M100.93 189.39C100.93 190.64 100.93 191.87 100.93 193.07C99.9301 196.37 97.2101 199.53 92.7901 202.07C81.3301 208.68 62.7901 208.68 51.2801 202.07C46.8601 199.51 44.1501 196.34 43.1401 193.07V189.4C44.1401 192.76 46.8401 195.96 51.3201 198.55C62.7901 205.16 81.3701 205.16 92.8301 198.55C97.2201 195.93 100 192.74 100.93 189.39Z" fill="#120442"/>
<path d="M100.84 195.21C100.84 196.55 100.77 197.85 100.72 199.1C99.5999 202.22 96.9399 205.19 92.7199 207.61C81.2599 214.23 62.7199 214.23 51.2099 207.61C46.9999 205.17 44.3399 202.18 43.2099 199.04C43.2099 197.79 43.1399 196.5 43.1099 195.17C44.1099 198.43 46.8399 201.53 51.1999 204.05C62.6699 210.67 81.2499 210.67 92.7099 204.05C97.0899 201.54 99.7899 198.45 100.84 195.21Z" fill="#120442"/>
<path d="M100.53 184.88C99.3202 187.81 96.7202 190.6 92.7502 192.88C81.2902 199.49 62.7502 199.49 51.2402 192.88C47.2402 190.56 44.6402 187.76 43.4302 184.8C43.5102 186.26 43.5902 187.63 43.6802 188.91C44.9702 191.67 47.4902 194.27 51.2402 196.44C56.1314 199.105 61.5279 200.713 67.0802 201.16C70.0721 201.451 73.0841 201.474 76.0802 201.23C81.9059 200.862 87.5811 199.227 92.7102 196.44C96.4302 194.29 98.9402 191.72 100.24 188.99L100.53 184.88Z" fill="#120442"/>
<path d="M85.0498 54.7301C76.4967 57.3554 67.3529 57.3554 58.7998 54.7301C62.3298 47.8401 66.5698 43.6301 71.6398 43.3801H72.2198C77.2698 43.6801 81.5098 47.8701 85.0498 54.7301Z" fill="#120442"/>
<path d="M74.7898 153.89H69.7998V219.4H74.7898V153.89Z" fill="#120442"/>
<path opacity="0.4" d="M311.4 382.18L253.4 348.69C249.21 346.27 249.74 342.05 254.57 339.26L292.15 317.57L365.3 359.8L327.72 381.5C322.88 384.29 315.58 384.59 311.4 382.18Z" fill="#D6D8E5"/>
<path d="M315.63 379.69L257.63 346.19C253.45 343.78 253.97 339.56 258.8 336.77L296.39 315.08L369.54 357.31L332 379C327.12 381.8 319.81 382.1 315.63 379.69Z" fill="#B1B4C4"/>
<path d="M369.53 357.31V355.1L366.15 357.05L369.53 357.31Z" fill="#B1B4C4"/>
<path d="M254.8 342.2V339.95L258.27 341.39L254.8 342.2Z" fill="#B1B4C4"/>
<path d="M315.63 377.47L257.63 343.98C253.45 341.56 253.97 337.35 258.8 334.56L296.39 312.86L369.54 355.1L332 376.79C327.12 379.58 319.81 379.89 315.63 377.47Z" fill="#D6D8E5"/>
<path d="M296.57 312.96L287.52 282.92L361.47 325.34L369.53 355.1L296.57 312.96Z" fill="#9EA1AF"/>
<path d="M367.39 356.33L369.53 355.1L366.34 352.55L367.39 356.33Z" fill="#9EA1AF"/>
<path d="M294.24 314.09L285.19 284.05L359.14 326.47L367.38 356.33L294.24 314.09Z" fill="#B1B4C4"/>
<path d="M482 407L195.71 241.69C191.71 239.37 188.44 233.15 188.44 227.8V6.3701C188.44 1.0101 191.7 -1.4499 195.71 0.8701L482 166.14C486 168.46 489.27 174.68 489.27 180.03V401.46C489.24 406.81 486 409.27 482 407Z" fill="#C4C7D6"/>
<path d="M483.44 409.24L486.61 407.41L485.24 398.01L483.44 409.24Z" fill="#C4C7D6"/>
<path d="M187.93 2.24018L191.05 0.430176L195.54 3.00018C195.54 3.00018 190.76 3.73018 190.64 3.70018C190.52 3.67018 187.93 2.24018 187.93 2.24018Z" fill="#B1B4C4"/>
<path d="M479.34 408.47L193.09 243.2C189.09 240.88 185.82 234.67 185.82 229.31V7.88004C185.82 2.53004 189.07 0.0700423 193.09 2.39004L479.34 167.66C483.34 169.98 486.61 176.2 486.61 181.55V403C486.61 408.33 483.36 410.79 479.34 408.47Z" fill="#E4E7F2"/>
<path d="M478.84 408.76L192.58 243.49C188.58 241.17 185.31 234.95 185.31 229.6V8.17008C185.31 2.82008 188.57 0.360081 192.58 2.68008L478.84 168C482.84 170.31 486.11 176.53 486.11 181.89V403.26C486.11 408.62 482.85 411.08 478.84 408.76Z" fill="#D6D8E5"/>
<path d="M482.17 395.29L189 226L189.1 9.06022C189.1 6.84022 190.66 5.94022 192.58 7.06022L478.84 172.32C479.849 172.978 480.689 173.864 481.294 174.906C481.898 175.948 482.25 177.118 482.32 178.32L482.17 395.29Z" fill="white"/>
<path d="M304.72 102.08L210.8 47.8602C210.366 47.5477 210.012 47.138 209.765 46.6639C209.519 46.1898 209.387 45.6645 209.38 45.1302V38.5802C209.38 37.5802 210.01 37.0502 210.8 37.5002L304.72 91.7202C305.152 92.0343 305.505 92.4443 305.751 92.9181C305.998 93.3918 306.131 93.9163 306.14 94.4502V101C306.14 102.05 305.5 102.54 304.72 102.08Z" fill="#E9EAF2"/>
<path d="M280.6 103.65L211.23 63.6C210.795 63.2907 210.439 62.8833 210.19 62.4108C209.942 61.9382 209.808 61.4138 209.8 60.88V57.62C209.8 56.62 210.44 56.08 211.23 56.54L280.6 96.59C281.029 96.903 281.379 97.312 281.622 97.7842C281.865 98.2564 281.995 98.7789 282 99.31V102.57C282 103.62 281.38 104.11 280.6 103.65Z" fill="#E9EAF2"/>
<path d="M280.6 116L211.23 76.0001C210.795 75.6909 210.439 75.2834 210.19 74.8109C209.942 74.3384 209.808 73.8139 209.8 73.2801V70.0001C209.8 69.0001 210.44 68.4601 211.23 68.9201L280.6 109C281.033 109.311 281.387 109.719 281.633 110.191C281.88 110.664 282.013 111.187 282.02 111.72V114.98C282 116 281.38 116.47 280.6 116Z" fill="#E9EAF2"/>
<path d="M267.51 120.82L211.23 88.3202C210.795 88.0109 210.439 87.6035 210.19 87.131C209.942 86.6584 209.808 86.134 209.8 85.6002V82.3402C209.8 81.3402 210.44 80.8002 211.23 81.2602L267.51 113.75C267.945 114.062 268.301 114.472 268.549 114.946C268.797 115.42 268.931 115.945 268.94 116.48V119.74C268.94 120.79 268.3 121.27 267.51 120.82Z" fill="#120442"/>
<path d="M304.72 231.84L210.8 177.62C210.366 177.308 210.012 176.898 209.765 176.424C209.519 175.95 209.387 175.424 209.38 174.89V168.34C209.38 167.29 210.01 166.81 210.8 167.26L304.72 221.48C305.152 221.794 305.505 222.204 305.751 222.678C305.998 223.152 306.131 223.676 306.14 224.21V230.76C306.14 231.81 305.5 232.29 304.72 231.84Z" fill="#E9EAF2"/>
<path d="M280.6 233.41L211.23 193.41C210.795 193.098 210.44 192.689 210.191 192.215C209.943 191.741 209.809 191.215 209.8 190.68V187.42C209.8 186.37 210.44 185.89 211.23 186.35L280.6 226.35C281.032 226.664 281.385 227.074 281.632 227.548C281.878 228.022 282.011 228.546 282.02 229.08V232.34C282 233.38 281.38 233.86 280.6 233.41Z" fill="#E9EAF2"/>
<path d="M280.6 245.77L211.23 205.72C210.796 205.41 210.441 205.002 210.193 204.53C209.944 204.058 209.81 203.534 209.8 203V199.74C209.8 198.74 210.44 198.21 211.23 198.67L280.6 238.67C281.032 238.984 281.385 239.394 281.632 239.868C281.878 240.342 282.011 240.866 282.02 241.4V244.66C282 245.74 281.38 246.22 280.6 245.77Z" fill="#E9EAF2"/>
<path d="M267.51 250.57L211.23 218.08C210.795 217.769 210.439 217.36 210.19 216.885C209.942 216.411 209.808 215.885 209.8 215.35V212.09C209.8 211.04 210.44 210.56 211.23 211.02L267.51 243.51C267.945 243.822 268.301 244.231 268.549 244.705C268.797 245.18 268.931 245.705 268.94 246.24V249.5C268.94 250.55 268.3 251 267.51 250.57Z" fill="#120442"/>
<path d="M329.85 247.94C329.85 247.94 340.21 256.64 355.17 244.76C365.85 236 375.4 241 380.72 244C386.04 247 393.72 248.84 408.35 275.26C408.35 275.26 413.11 283.54 420.97 288.08C428.83 292.62 432.61 290.4 438.79 281.08C444.97 271.76 449.02 261.44 460.38 268.18V361.87L328.83 286V247.33L329.85 247.94Z" fill="#F5F6FF"/>
<path d="M301.26 208.22L211.26 156.22C210.825 155.908 210.47 155.499 210.221 155.025C209.973 154.551 209.839 154.025 209.83 153.49V101.56C209.83 100.56 210.47 100.03 211.26 100.48L301.26 152.48C301.695 152.792 302.051 153.201 302.299 153.675C302.547 154.15 302.681 154.675 302.69 155.21V207.16C302.69 208.19 302.05 208.67 301.26 208.22Z" fill="#E9EAF2"/>
<path d="M328.83 245.76V285.98L460.38 361.92V268.23" stroke="#E9EAF2" stroke-width="0.31" stroke-miterlimit="10"/>
<path d="M380.53 244.47V315.73" stroke="#E9EAF2" stroke-width="0.31" stroke-miterlimit="10"/>
<path d="M420.78 289.54V338.96" stroke="#E9EAF2" stroke-width="0.31" stroke-miterlimit="10"/>
<path d="M328.83 247.33C352.17 261.8 355.47 229.09 380.9 243.77C406.33 258.45 402.82 277.58 421.59 288.42C440.36 299.26 440.8 256.92 460.38 268.23" stroke="#E9EAF2" stroke-width="1.53" stroke-miterlimit="10"/>
<path d="M382.719 248.284C383.929 247.586 383.927 245.317 382.715 243.217C381.503 241.118 379.539 239.982 378.329 240.681C377.119 241.379 377.12 243.648 378.333 245.747C379.545 247.847 381.509 248.983 382.719 248.284Z" fill="#120442"/>
<path d="M464.41 273.129C465.626 272.431 465.629 270.155 464.417 268.045C463.204 265.936 461.236 264.792 460.02 265.491C458.805 266.19 458.802 268.466 460.014 270.575C461.227 272.685 463.195 273.828 464.41 273.129Z" fill="#120442"/>
<path d="M424.644 293.644C425.859 292.945 425.862 290.669 424.65 288.559C423.438 286.45 421.469 285.306 420.254 286.005C419.038 286.704 419.035 288.98 420.248 291.089C421.46 293.199 423.428 294.342 424.644 293.644Z" fill="#120442"/>
<path d="M331.025 251.141C332.235 250.442 332.234 248.174 331.021 246.074C329.809 243.974 327.845 242.839 326.635 243.537C325.425 244.236 325.427 246.504 326.639 248.604C327.852 250.704 329.815 251.84 331.025 251.141Z" fill="#120442"/>
<path d="M332.54 178.23L327.15 175.12C326.715 174.808 326.36 174.399 326.111 173.925C325.863 173.451 325.729 172.925 325.72 172.39V146.39C325.72 145.34 326.36 144.86 327.15 145.31L332.54 148.43C332.974 148.731 333.332 149.129 333.586 149.593C333.839 150.056 333.981 150.572 334 151.1V177.15C334 178.2 333.33 178.68 332.54 178.23Z" fill="#E9EAF2"/>
<path d="M345 185.4L339.61 182.28C339.175 181.971 338.819 181.564 338.57 181.091C338.322 180.618 338.188 180.094 338.18 179.56V126.56C338.18 125.56 338.82 125.02 339.61 125.48L345 128.6C345.435 128.912 345.791 129.321 346.039 129.796C346.287 130.27 346.421 130.795 346.43 131.33V184.33C346.39 185.37 345.75 185.85 345 185.4Z" fill="#120442"/>
<path d="M369.79 199.73L364.4 196.62C363.964 196.31 363.607 195.901 363.358 195.426C363.11 194.952 362.977 194.426 362.97 193.89V146.05C362.97 145 363.61 144.52 364.4 144.97L369.79 148.08C370.225 148.392 370.581 148.801 370.829 149.275C371.077 149.749 371.211 150.275 371.22 150.81V198.66C371.22 199.71 370.58 200.19 369.79 199.73Z" fill="#E9EAF2"/>
<path d="M382.21 206.9L376.82 203.79C376.385 203.478 376.03 203.069 375.781 202.595C375.533 202.121 375.399 201.595 375.39 201.06V161.42C375.39 160.42 376.03 159.89 376.82 160.34L382.21 163.46C382.645 163.769 383.002 164.177 383.25 164.649C383.498 165.122 383.632 165.646 383.64 166.18V205.82C383.64 206.88 383 207.36 382.21 206.9Z" fill="#120442"/>
<path d="M406.94 221.18L401.54 218.07C401.107 217.758 400.752 217.348 400.506 216.874C400.259 216.4 400.127 215.874 400.12 215.34V195.75C400.12 194.69 400.75 194.21 401.54 194.67L406.94 197.78C407.372 198.094 407.725 198.504 407.971 198.978C408.218 199.452 408.351 199.976 408.36 200.51V220.1C408.36 221.15 407.72 221.63 406.94 221.18Z" fill="#E9EAF2"/>
<path d="M419.35 228.35L414 225.23C413.565 224.921 413.209 224.513 412.96 224.041C412.712 223.568 412.578 223.044 412.57 222.51V155.88C412.57 154.82 413.21 154.34 414 154.8L419.39 157.91C419.826 158.221 420.182 158.631 420.43 159.105C420.679 159.579 420.812 160.105 420.82 160.64V227.27C420.78 228.32 420.14 228.8 419.35 228.35Z" fill="#120442"/>
<path d="M449.64 245.84L444.25 242.72C443.815 242.411 443.459 242.003 443.21 241.531C442.962 241.058 442.828 240.534 442.82 240V220.4C442.82 219.35 443.46 218.87 444.25 219.32L449.64 222.44C450.077 222.75 450.434 223.159 450.682 223.634C450.931 224.108 451.064 224.635 451.07 225.17V244.76C451.07 245.81 450.43 246.29 449.64 245.84Z" fill="#E9EAF2"/>
<path d="M462.06 253L456.67 249.88C456.234 249.57 455.877 249.161 455.628 248.686C455.38 248.212 455.247 247.686 455.24 247.15V221.15C455.24 220.1 455.88 219.62 456.67 220.07L462.06 223.18C462.495 223.492 462.851 223.901 463.099 224.376C463.347 224.85 463.481 225.375 463.49 225.91V251.96C463.49 253 462.85 253.46 462.06 253Z" fill="#120442"/>
<path opacity="0.4" d="M104.91 498L60.2699 472.26C55.2099 469.33 55.8399 464.26 61.6899 460.86L84.3499 447.77C90.1898 444.4 98.9998 444 104.09 447L148.73 472.78C153.79 475.7 153.16 480.78 147.31 484.17L124.65 497.26C118.81 500.58 110 501 104.91 498Z" fill="#D6D8E5"/>
<path d="M172 465.87V403.56L76.6801 392.83V455.53C76.6201 457.45 77.6801 459.28 80.0801 460.64L124.72 486.42C129.78 489.34 138.62 488.97 144.46 485.6L167.12 472.51C170.41 470.61 172.05 468.16 171.95 465.87H172Z" fill="#D6D8E5"/>
<path d="M171.94 410.36V403.56H164.61L123.9 380.05C118.84 377.12 110 377.49 104.16 380.86L81.5001 394C81.0971 394.229 80.7066 394.479 80.3301 394.75L76.6801 392.88C76.6801 392.88 76.6801 400.07 76.6801 400.31C76.6201 402.21 77.6801 404.04 80.0801 405.4L124.72 431.17C129.78 434.09 138.62 433.72 144.46 430.35L167.12 417.27C170.51 415.27 172.12 412.77 171.93 410.41L171.94 410.36Z" fill="#EDF0F9"/>
<path d="M124.72 423.71L80.0799 397.94C75.0199 395.02 75.6499 389.94 81.4999 386.54L104.16 373.46C110 370.08 118.84 369.72 123.9 372.64L168.54 398.41C173.6 401.33 172.97 406.41 167.12 409.81L144.46 422.89C138.62 426.27 129.78 426.63 124.72 423.71Z" fill="#E2E5F2"/>
<path d="M114.66 388.53V386.05H113.14L112.67 385.75C111.175 384.991 109.522 384.596 107.845 384.596C106.168 384.596 104.515 384.991 103.02 385.75C102.734 385.917 102.463 386.107 102.21 386.32L101.02 386.05V388.53C101.076 389.131 101.291 389.706 101.642 390.196C101.994 390.686 102.469 391.074 103.02 391.32C104.515 392.079 106.168 392.475 107.845 392.475C109.522 392.475 111.175 392.079 112.67 391.32C113.221 391.076 113.696 390.688 114.046 390.197C114.396 389.706 114.608 389.131 114.66 388.53Z" fill="#6E48E5"/>
<path d="M107.84 389.99C111.607 389.99 114.66 388.226 114.66 386.05C114.66 383.874 111.607 382.11 107.84 382.11C104.073 382.11 101.02 383.874 101.02 386.05C101.02 388.226 104.073 389.99 107.84 389.99Z" fill="#120442"/>
<path d="M131.58 399C131.208 399.833 130.562 400.514 129.75 400.93C128.255 401.684 126.604 402.077 124.93 402.077C123.256 402.077 121.605 401.684 120.11 400.93C119.298 400.514 118.652 399.833 118.28 399C117.78 397.72 118.4 396.35 120.11 395.35C121.605 394.596 123.256 394.203 124.93 394.203C126.604 394.203 128.255 394.596 129.75 395.35C131.47 396.3 132.08 397.67 131.58 399Z" fill="#5E42D3"/>
<path d="M131.58 399C131.208 399.833 130.562 400.514 129.75 400.93C128.255 401.684 126.604 402.077 124.93 402.077C123.256 402.077 121.605 401.684 120.11 400.93C119.621 400.895 119.163 400.676 118.829 400.317C118.495 399.958 118.309 399.486 118.309 398.995C118.309 398.505 118.495 398.033 118.829 397.674C119.163 397.315 119.621 397.095 120.11 397.06C121.605 396.306 123.256 395.913 124.93 395.913C126.604 395.913 128.255 396.306 129.75 397.06C130.564 397.478 131.21 398.163 131.58 399Z" fill="#120442"/>
<path d="M147.61 407.87V405.39H146.09L145.62 405.09C144.125 404.331 142.472 403.936 140.795 403.936C139.118 403.936 137.465 404.331 135.97 405.09C135.687 405.257 135.416 405.444 135.16 405.65L133.97 405.39V407.87C134.026 408.471 134.241 409.046 134.592 409.536C134.944 410.026 135.419 410.414 135.97 410.66C137.465 411.419 139.118 411.815 140.795 411.815C142.472 411.815 144.125 411.419 145.62 410.66C146.171 410.415 146.646 410.028 146.996 409.537C147.346 409.046 147.558 408.471 147.61 407.87Z" fill="#6E48E5"/>
<path d="M140.79 409.33C144.557 409.33 147.61 407.566 147.61 405.39C147.61 403.214 144.557 401.45 140.79 401.45C137.024 401.45 133.97 403.214 133.97 405.39C133.97 407.566 137.024 409.33 140.79 409.33Z" fill="#120442"/>
<path d="M65.3001 378.51C65.0301 380.84 62.3 390.9 62.84 394.35C63.38 397.8 72.9401 403.56 72.9401 403.56L74.2601 397.66L69 392.5L70.42 382.73L65.3001 378.51Z" fill="#FFCEA9"/>
<path d="M72.6499 368.6C71.7266 368.17 70.6774 368.094 69.7019 368.387C68.7264 368.68 67.8928 369.322 67.3599 370.19C65.9599 372.51 64.5099 380.45 64.3599 381.81C64.3599 381.81 66.3599 384.52 69.2699 384.07L72.6499 368.6Z" fill="#EDEDED"/>
<path d="M83.5001 480.76C85.5689 481.329 87.7787 481.06 89.6501 480.01C91.1301 480.06 99.1801 476.61 100.27 479.5C101.27 482.04 97.7401 484.38 95.8801 484.83C91.8201 485.83 88.8201 487.83 87.1801 488.19C85.9701 488.44 84.3901 488.61 83.4301 487.65C82.2601 486.51 82.3601 482.27 83.5001 480.76Z" fill="#38226D"/>
<path d="M87.1801 487.48C88.8201 487.14 91.8201 485.11 95.8801 484.13C97.4401 483.75 100.13 482.05 100.4 480.01C100.76 482.34 97.6201 484.41 95.8801 484.83C91.8201 485.83 88.8201 487.83 87.1801 488.19C85.9701 488.44 84.3901 488.61 83.4301 487.65C83.1672 487.369 82.9812 487.024 82.8901 486.65C83.49 487.115 84.1909 487.432 84.9361 487.577C85.6814 487.721 86.4501 487.688 87.1801 487.48Z" fill="#9C73FF"/>
<path d="M70.46 474.9C72.5275 475.472 74.7373 475.206 76.61 474.16C78.09 474.16 86.13 470.76 87.23 473.65C88.23 476.18 84.7 478.52 82.84 478.98C78.78 479.98 75.77 481.98 74.14 482.33C72.92 482.58 71.35 482.75 70.38 481.8C69.22 480.65 69.32 476.41 70.46 474.9Z" fill="#38226D"/>
<path d="M74.1401 481.63C75.7701 481.28 78.7801 479.26 82.8401 478.27C84.4001 477.9 87.0901 476.19 87.3601 474.16C87.7201 476.49 84.5801 478.55 82.8401 478.98C78.7801 479.98 75.7701 481.98 74.1401 482.33C72.9201 482.58 71.3501 482.75 70.3801 481.8C70.1266 481.513 69.9449 481.171 69.8501 480.8C70.4518 481.261 71.1527 481.577 71.8972 481.721C72.6418 481.865 73.4096 481.834 74.1401 481.63Z" fill="#9C73FF"/>
<path d="M70.3 453.05C70.6465 450.063 71.2657 447.114 72.15 444.24C72.15 444.24 71.6 436.64 71.32 429.43C71.01 421.25 68.17 414.05 70.41 407.53L95.64 413.14C95.64 413.14 94.12 445.75 93.78 449.69C93.5969 452.764 93.2195 455.824 92.65 458.85C91.5 465.18 89.65 480.24 89.65 480.24C86.99 481.79 83.48 480.93 83.48 480.93C83.48 480.93 83.68 461.93 83.85 457.33C84.06 451.76 84.23 452.18 84.23 452.18L83.39 438.31L82.85 431.41C82.85 431.41 82.15 436.47 81.69 441C81.3 444.94 80.35 448.51 79.28 455.85C78.36 462.22 76.86 475.02 76.86 475.02C74.19 476.57 70.57 475.28 70.57 475.28C70.57 475.28 69.58 458.57 70.3 453.05Z" fill="#120442"/>
<path d="M73.9998 368.73C75.9298 368.83 77.3598 369.32 77.5998 368.73C77.8002 367.739 77.9437 366.737 78.0298 365.73C77.8098 365.17 77.6198 364.57 77.6198 364.57C75.2098 363.09 74.4498 360.48 74.1298 357.44C73.5898 352.25 76.3898 347.71 81.5798 347.17C86.4598 346.66 90.0598 350.09 91.0098 354.8C91.5298 357.12 92.5598 361.52 91.1698 365.34C90.3898 367.48 89.3898 369.18 88.3898 369.51C87.4223 369.478 86.4574 369.392 85.4998 369.25C85.4998 369.25 85.2398 370.69 85.0598 371.61C84.8798 372.53 84.9498 373.03 86.7898 374.16C88.6298 375.29 83.9998 377.66 80.9998 377.43C77.9998 377.2 74.5798 375.38 73.6398 373.43C72.5698 371.24 72.6598 368.67 73.9998 368.73Z" fill="#FFCEA9"/>
<path d="M76.7601 369C76.2301 370.33 77.5801 372 81.1901 373.08C84.8001 374.16 85.1301 372.76 85.1301 372.76C87.5281 373.834 89.865 375.039 92.1301 376.37C94.3001 377.89 95.2601 382.27 95.5501 389.67C95.8901 398.23 95.9201 410.93 95.6301 413.12C95.6301 413.12 91.6301 417.12 86.4001 416.73C81.1701 416.34 72.5101 411.73 70.4001 408.18C70.4601 400.67 71.3401 399.45 70.1201 395.13C67.3401 385.23 65.8801 381.13 67.2301 374.6C68.3401 369.17 69.9001 368.5 72.0501 368.55C73.6271 368.614 75.1995 368.764 76.7601 369Z" fill="#F4F4F4"/>
<path d="M103.71 396.77C99.4499 397.84 98.4599 395.16 97.8999 392.94C96.5399 387.56 95.8199 382.71 94.8099 379.66C93.6199 376.06 92.3699 375.49 90.6299 374.79C88.6299 373.96 86.8099 375.7 87.4899 380.28C88.329 385.594 89.6341 390.824 91.3899 395.91C91.9199 397.58 93.0999 400.55 94.8799 401.99C97.0699 403.76 100.38 403.69 105.38 402.45C107.51 401.91 109.85 400.64 113.88 398.76C114.96 398.26 115.8 397.92 117.88 396.95C119.969 396.018 121.798 394.59 123.21 392.79C124.3 391.21 124.44 390.47 124.21 390.11C123.98 389.75 123.44 389.76 122.86 390.43C122.018 391.549 120.982 392.508 119.8 393.26C119.8 393.26 121.14 391.87 121.87 390.97C122.522 390.17 123.064 389.285 123.48 388.34C123.86 387.42 123.07 386.17 122.48 386.83C121.89 387.49 121.59 388.15 120.48 389.47C119.891 390.175 119.22 390.806 118.48 391.35C119.163 390.428 119.768 389.452 120.29 388.43C120.761 387.632 120.993 386.716 120.96 385.79C120.96 385.31 120.25 384.74 119.61 385.65C118.992 386.9 118.227 388.072 117.33 389.14C116.33 390.14 115.53 390.72 115.51 390.44C115.49 390.16 116.09 389.61 116.44 388.44C116.79 387.27 116.44 386.02 115.79 385.89C115.14 385.76 115.27 385.79 114.79 386.89C114.073 388.018 113.429 389.191 112.86 390.4C112.525 391.526 111.925 392.555 111.11 393.4C110.06 394.52 107.75 395.75 103.71 396.77Z" fill="#FFCEA9"/>
<path d="M89.0499 374.05C91.8899 373.63 93.8999 374.91 95.1499 379.21C96.3999 383.51 97.2799 387 97.2799 387C96.1582 388.621 94.4587 389.752 92.5299 390.16C89.1299 390.99 87.9099 389.36 87.9099 389.36C87.9099 389.36 86.9699 384.86 86.3799 381.79C85.7899 378.72 85.5399 374.57 89.0499 374.05Z" fill="#EDEDED"/>
<path d="M90.83 354.13C90.83 354.13 95.31 347.31 85.59 345.92C78.59 344.92 74.08 349.42 73.59 354.31C73.09 358.98 75.97 363.83 78.04 365.75C80.0805 366.269 82.2412 366.009 84.1 365.02C84.2191 363.75 84.2658 362.475 84.24 361.2C84.24 361.2 80.79 354 90.83 354.13Z" fill="#3A2C6D"/>
<path opacity="0.4" d="M382.58 484.8C396.183 484.8 407.21 478.434 407.21 470.58C407.21 462.727 396.183 456.36 382.58 456.36C368.977 456.36 357.95 462.727 357.95 470.58C357.95 478.434 368.977 484.8 382.58 484.8Z" fill="#D6D8E5"/>
<path d="M382.37 333.37C383.37 331.74 391.17 330.66 393.73 337.25C394.73 339.75 394.55 346.14 395.36 350.15C396.17 354.16 398.08 356.44 398.77 359.69C399.46 362.94 398.34 368.4 390.49 369.37C382.64 370.34 376.61 367.58 374.76 365.08C372.91 362.58 372.87 357.26 374.76 354.4C376.65 351.54 378.15 349.23 378.1 345.51L382.37 333.37Z" fill="#3A2C6D"/>
<path d="M387.51 332.24C387.51 332.24 381.65 330.55 378.1 333.71C376.93 334.791 376.079 336.171 375.638 337.701C375.198 339.231 375.184 340.853 375.6 342.39C376.07 344.24 377.02 346.76 378.49 346.9C379.96 347.04 387.51 332.24 387.51 332.24Z" fill="#3A2C6D"/>
<path d="M389.75 348.21C389.75 348.21 389.36 354.73 389.48 355.21C389.6 355.69 392.04 356.21 392.73 356.73C393.42 357.25 389.18 363.92 387.03 364.9C384.88 365.88 378.21 363.37 377.74 360.06C377.32 357 379.65 354.63 380.55 353.8C381.161 353.742 381.776 353.725 382.39 353.75L382.59 350.59C385.51 349.66 389.75 348.21 389.75 348.21Z" fill="#FFCEA9"/>
<path d="M374 360.54C374 360.35 373 360.88 373 360.89C373 360.9 372.53 377.64 371.71 379.16C369.62 382.71 364.09 388.73 363.95 389.4C363.54 391.4 364.72 389.61 366.62 389.4C367.69 389.27 373.98 382.91 375.39 381.46L375.48 381.51V381.35L375.66 381.16C375.696 380.707 375.696 380.253 375.66 379.8C378.31 361.61 375.09 360.4 374 360.54Z" fill="#FFCEA9"/>
<path d="M390.64 355.85C392.48 356.13 394.57 357.11 394.86 358.11C395.617 361.728 395.438 365.48 394.34 369.01C392.75 373.21 391.68 375.88 390.76 377.69C390.76 377.69 382.83 381.09 376.43 377.12C376.43 377.12 375.99 372.62 375.96 370.21C370.06 365.06 375.11 358.71 380.11 353.78C380.709 353.725 381.311 353.725 381.91 353.78C381.91 353.78 377.45 359.06 380.55 362.06C387.2 360 388.52 357 390.64 355.85Z" fill="#F4F4F4"/>
<path d="M377.56 340.12C378.21 335.93 381.24 332.76 385.56 333.01C387.3 333.104 388.968 333.743 390.325 334.837C391.683 335.93 392.662 337.423 393.124 339.104C393.587 340.785 393.508 342.569 392.901 344.203C392.294 345.837 391.188 347.239 389.74 348.21C389.591 348.845 389.366 349.459 389.07 350.04C387.54 351.82 383.47 352.95 382.13 352.97C380.97 352.97 379.97 351.9 378.88 350.1C376.62 346.35 377.2 342.19 377.56 340.12Z" fill="#FFCEA9"/>
<path d="M386.91 333.09C389.91 333.68 392.43 334.54 393.26 337.51C393.82 339.57 394.56 343.51 393.86 345.12L393.42 346.31L389.75 348.21C389.75 348.21 388.03 346.78 388.57 342.59C388.549 342.025 388.368 341.477 388.05 341.01C387.82 340.613 387.648 340.186 387.54 339.74C387.104 338.608 386.253 337.685 385.16 337.16C382.43 335.63 378.43 336.95 377.87 337.51C378.643 335.85 379.962 334.505 381.608 333.701C383.253 332.896 385.125 332.681 386.91 333.09Z" fill="#3A2C6D"/>
<path d="M392.43 465.69C390.89 466.94 388.5 466.08 388.43 466.19C386.637 467.726 384.761 469.162 382.81 470.49C381.81 471.24 380.36 472.25 380.63 473.69C381.11 476.28 385.25 475.49 386.81 474.69C388.37 473.89 389.65 472.59 391.13 471.69C392.18 471.04 393.22 470.69 393.39 469.37C393.44 468.54 392.7 465.66 392.43 465.69Z" fill="#38226D"/>
<path d="M393.33 468.81C393.12 470.09 392.1 470.44 391.05 471.09C389.55 472.02 388.23 473.37 386.67 474.16C385.11 474.95 381.62 475.61 380.61 473.77C381.16 476.26 385.23 475.48 386.77 474.69C388.31 473.9 389.61 472.59 391.09 471.69C392.14 471.04 393.18 470.69 393.35 469.37C393.358 469.183 393.351 468.996 393.33 468.81Z" fill="#9C73FF"/>
<path d="M381.66 463.54C380.25 464.69 378.13 464.04 378.03 464.15C376.387 465.546 374.671 466.855 372.89 468.07C372.01 468.76 370.64 469.68 370.89 471C371.33 473.37 375.12 472.64 376.56 471.92C378 471.2 379.15 469.99 380.51 469.15C381.51 468.55 382.42 468.24 382.57 467.02C382.67 466.28 381.91 463.51 381.66 463.54Z" fill="#38226D"/>
<path d="M382.56 466.53C382.37 467.7 381.43 468.02 380.47 468.61C379.1 469.47 377.89 470.7 376.47 471.43C375.05 472.16 371.85 472.76 370.92 471.07C371.42 473.35 375.15 472.64 376.57 471.92C377.99 471.2 379.16 469.99 380.52 469.15C381.52 468.55 382.43 468.24 382.58 467.02C382.593 466.856 382.586 466.692 382.56 466.53Z" fill="#9C73FF"/>
<path d="M373.38 392.14C374.06 386.84 376.01 379.14 376.01 379.14C377.853 380.001 379.847 380.494 381.88 380.59C384.86 380.58 387.833 380.292 390.76 379.73C391.714 381.399 392.759 383.015 393.89 384.57C395.42 386.69 398.39 391.33 397.67 399.44C397.2 404.74 394.23 427.25 394.23 427.25C395.386 431.034 396.002 434.963 396.06 438.92C395.779 443.626 395.158 448.305 394.2 452.92L392.43 465.69C392.43 465.69 390.07 467.4 388.43 466.19L388.64 453.69C388.44 450.63 388.13 446.12 387.94 443.24C387.62 438.54 386.78 431.09 386.54 429.24C386.3 427.39 385.7 424.12 385.41 420.48C385.12 416.84 383.76 398.31 383.76 398.31L383.57 401.78C383.57 401.78 383.38 407.41 382.57 414.36C381.76 421.31 381.48 424.36 381.48 424.36C382.247 425.762 382.784 427.278 383.07 428.85C383.21 430.35 384.92 442.23 383.9 448.27L381.79 463.64C381.266 464.003 380.664 464.236 380.033 464.32C379.401 464.403 378.759 464.335 378.16 464.12L376.92 448.63C376.09 442.74 374.33 430.25 374.06 428.63C373.46 425.358 373.105 422.045 373 418.72C372.56 412 372.7 397.43 373.38 392.14Z" fill="#FFCEA9"/>
<path d="M390.76 377.69L395.32 386.84C395.32 386.84 402.32 397.02 395.07 423.19L396.42 431.27C396.42 431.27 382.78 440.02 373.65 431.27C373.65 431.27 370.49 407.08 372.17 395.93C373.11 389.522 374.531 383.195 376.42 377C376.42 377 378.66 379.47 390.16 377.84" fill="#120442"/>
<path d="M380.11 353.78C380.11 353.78 376.49 352.67 372.64 360.7L374.08 361.56C374.08 361.56 377.87 355.84 380.11 353.78Z" fill="#EDEDED"/>
<path d="M351.84 397.29L367.42 388.24L378.6 394.69L363.02 403.75L351.84 397.29Z" fill="#F4F4F4"/>
<path d="M365.41 388.9C364.433 388.998 363.488 389.305 362.64 389.8C362.328 390.072 361.994 390.316 361.64 390.53C361.49 390.6 361.34 390.7 361.18 390.77C360.941 390.857 360.726 390.997 360.55 391.18C360.376 391.437 360.282 391.74 360.28 392.05C360.2 392.421 360.18 392.802 360.22 393.18C360.36 393.74 360.94 393.69 361.22 393.3C361.372 393.105 361.459 392.867 361.47 392.62C361.478 392.384 361.542 392.153 361.657 391.946C361.772 391.739 361.934 391.562 362.13 391.43L365.85 389.12C365.807 389.044 365.742 388.982 365.663 388.943C365.585 388.904 365.497 388.889 365.41 388.9Z" fill="#FFCEA9"/>
<path d="M395.05 361C394.54 358.88 392.88 359.56 391.45 358.32C388.14 363.01 390.34 375.69 390.79 377.04L378.07 385.15L377.21 385.68C375.762 386.631 374.162 387.328 372.48 387.74C371.21 387.89 370.55 389.68 369.19 389.84C369.086 389.844 368.985 389.878 368.901 389.938C368.816 389.999 368.751 390.082 368.714 390.179C368.677 390.276 368.669 390.382 368.691 390.484C368.713 390.585 368.765 390.678 368.84 390.75C369.38 391.27 370.84 390.84 371.84 389.68C371.835 389.706 371.835 389.734 371.84 389.76C371.848 389.946 371.903 390.126 372.002 390.283C372.1 390.441 372.237 390.571 372.4 390.66C372.473 390.704 372.555 390.732 372.64 390.74C372.639 390.825 372.664 390.909 372.71 390.98C372.782 391.127 372.889 391.254 373.021 391.35C373.154 391.446 373.308 391.508 373.47 391.53C373.541 391.735 373.677 391.912 373.858 392.032C374.038 392.153 374.253 392.212 374.47 392.2C374.761 392.185 375.037 392.06 375.24 391.85C376.324 391.436 377.282 390.747 378.02 389.85C378.671 389.173 379.359 388.532 380.08 387.93C383.53 386.44 393.88 382.02 394.34 381.39C395.06 380.44 395.79 364 395.05 361Z" fill="#FFCEA9"/>
<path d="M396.21 366.69C396.21 366.69 392.14 368.51 388.76 366.81L389.25 360.44C389.25 360.44 389.3 357.02 392.35 356.68C395.4 356.34 397 360.25 396.21 366.69Z" fill="#EDEDED"/>
</g>
<defs>
<clipPath id="clip0_24_241">
<rect width="489.24" height="500" fill="white"/>
</clipPath>
</defs>
</svg>
