<?xml version="1.0" encoding="UTF-8"?>
<svg width="1024px" height="1025px" viewBox="0 0 1024 1025" version="1.1" xmlns="http://www.w3.org/2000/svg" xmlns:xlink="http://www.w3.org/1999/xlink">
    <!-- Generator: Sketch 53.1 (72631) - https://sketchapp.com -->
    <title>logo_1024x1024_large_no-whitespace</title>
    <desc>Created with Sketch.</desc>
    <g id="logo_1024x1024_large_no-whitespace" stroke="none" stroke-width="1" fill="none" fill-rule="evenodd">
        <path d="M512,0 L955.405007,256 L955.405007,811.578125 L703.96875,961.414063 C627.942708,1005.94531 563.953125,1028.21094 512,1028.21094 C460.046875,1028.21094 423.75,1021.85677 403.109375,1009.14844 L68.5949933,811.578125 L68.5949933,256 L512,0 Z" id="Polygon" fill="#FFFFFF"></path>
        <g id="Atoms/Branding/Logo" transform="translate(36.000000, 0.000000)" fill="#000000" fill-rule="nonzero">
            <path d="M503.624629,519.975744 L502.86099,732.262523 C524.171407,684.366401 541.381335,647.842868 554.537686,622.606303 C565.12474,602.298174 576.620004,585.848585 595.856757,561.598332 C597.558921,559.452548 604.911761,550.235856 606.831652,547.812858 C642.19086,503.187766 654.515122,476.893304 654.515122,431.964573 C654.515122,335.530624 575.541484,257.354188 478.120976,257.354188 C380.700468,257.354188 301.726829,335.530624 301.726829,431.964573 C301.726829,476.68632 312.572328,503.034992 342.203959,543.740091 C344.583226,547.0085 356.191323,562.693403 359.481176,567.227473 C375.40169,589.169095 386.404698,606.719505 396.177412,627.326253 C408.035133,652.329449 425.02979,687.534919 447.154825,732.928689 L447.926768,518.333791 C416.703621,506.349157 394.565854,476.323483 394.565854,441.178867 C394.565854,395.493262 431.974756,358.457761 478.120976,358.457761 C524.267195,358.457761 561.676098,395.493262 561.676098,441.178867 C561.676098,478.059022 537.297895,509.302177 503.624629,519.975744 Z M502.353041,873.46897 L502.121649,937.794225 C501.94818,986.017613 462.32063,1024.97117 413.611041,1024.79943 C398.244806,1024.74526 383.159501,1020.7174 369.849559,1013.11488 L44.1214966,827.062052 C16.8202892,811.467857 1.97898283e-13,782.635071 2.63864378e-13,751.430434 L0,308.7119 C-6.59660944e-14,277.507263 16.8202892,248.674476 44.1214966,233.080281 L431.724423,11.6851035 C459.001021,-3.89503451 492.598979,-3.89503451 519.875577,11.6851035 L907.478503,233.080281 C934.779711,248.674476 951.6,277.507263 951.6,308.7119 L951.6,751.430434 C951.6,782.635071 934.779711,811.467857 907.478503,827.062052 L648.39557,975.047809 C635.071992,982.658112 618.039528,978.134398 610.352496,964.943812 C602.665463,951.753226 607.234786,934.890774 620.558363,927.28047 L879.641297,779.294714 C889.699637,773.549484 895.896585,762.926879 895.896585,751.430434 L895.896585,308.7119 C895.896585,297.215455 889.699637,286.592849 879.641297,280.84762 L492.03837,59.4524417 C481.989098,53.7123909 469.610902,53.7123909 459.56163,59.4524417 L71.9587029,280.84762 C61.9003633,286.592849 55.7034146,297.215455 55.7034146,308.7119 L55.7034146,751.430434 C55.7034146,762.926879 61.9003633,773.549484 71.9587029,779.294714 L397.686765,965.347546 C402.590428,968.148473 408.148172,969.63242 413.809416,969.65238 C431.755055,969.715652 446.354678,955.364341 446.418588,937.59783 L446.703229,858.469458 C399.093132,761.514442 365.45357,692.300203 345.75508,650.763961 C337.670518,633.716848 328.336873,618.829166 314.240413,599.401451 C311.146567,595.137519 299.572593,579.498721 297.013569,575.98338 C261.142423,526.707032 246.023415,489.976054 246.023415,431.964573 C246.023415,305.072146 349.937743,202.206784 478.120976,202.206784 C606.304208,202.206784 710.218537,305.072146 710.218537,431.964573 C710.218537,491.672158 692.994117,528.421365 650.659119,581.850252 C648.666283,584.365311 641.300724,593.597946 639.665298,595.659598 C622.428391,617.388804 612.641793,631.393312 604.037127,647.898817 C582.589675,689.039404 549.101528,763.23015 503.801285,870.053828 L502.353041,873.46897 Z" id="Combined-Shape"></path>
        </g>
    </g>
</svg>